<?xml version='1.0' encoding='utf-8'?>
<svg xmlns="http://www.w3.org/2000/svg" xmlns:ns2="http://www.inkscape.org/namespaces/inkscape" xmlns:sodipodi="http://sodipodi.sourceforge.net/DTD/sodipodi-0.dtd" width="1910" height="500" viewBox="150 250 1910 500" version="1.1" id="svg37" sodipodi:docname="InfiniteAg_Horizontal_FullColor_EditableText.svg">
  <sodipodi:namedview id="namedview37" pagecolor="#ffffff" bordercolor="#000000" borderopacity="0.25" ns2:showpageshadow="2" ns2:pageopacity="0.0" ns2:pagecheckerboard="0" ns2:deskcolor="#d1d1d1" />
  <defs id="defs8">
    <linearGradient id="loopGradient" x1="280" y1="0" x2="1360" y2="0" gradientUnits="userSpaceOnUse">
      <stop offset="0" stop-color="#122516" id="stop1" />
      <stop offset="0.44" stop-color="#6B7F3A" id="stop2" />
      <stop offset="0.58" stop-color="#122516" id="stop3" />
      <stop offset="1" stop-color="#C79A4E" id="stop4" />
    </linearGradient>
    <linearGradient id="leafGradient" x1="0" y1="0" x2="1" y2="1">
      <stop offset="0" stop-color="#6B7F3A" id="stop5" />
      <stop offset="1" stop-color="#122516" id="stop6" />
    </linearGradient>
    <linearGradient id="rootGradient" x1="0" y1="0" x2="0" y2="1">
      <stop offset="0" stop-color="#5B452F" id="stop7" />
      <stop offset="1" stop-color="#332417" id="stop8" />
    </linearGradient>
  </defs>
  <style id="style8">

  .wordmark { font-family: "EB Garamond", "Cormorant Garamond", Georgia, serif; font-size: 210px; letter-spacing: 0px; }
  .wordmark-small { font-family: "EB Garamond", Georgia, serif; font-size: 164px; letter-spacing: 0px; }
  .tagline { font-family: "DejaVu Sans", Arial, sans-serif; font-size: 40px; letter-spacing: 12px; font-weight: 500; }
  .tagline-small { font-family: "DejaVu Sans", Arial, sans-serif; font-size: 31px; letter-spacing: 8px; font-weight: 500; }
  .micro { font-family: "DejaVu Sans", Arial, sans-serif; font-size: 27px; letter-spacing: 8px; font-weight: 600; }

</style>
  <g transform="translate(415 520) scale(0.54)" id="g34">
    <path d="M 0 0 C -130 -160 -330 -138 -360 0 C -390 138 -134 163 0 0 C 134 -163 390 -138 360 0 C 330 138 130 160 0 0 Z" fill="none" stroke="url(#loopGradient)" stroke-width="68" stroke-linecap="round" stroke-linejoin="round" id="path8" />
    <path d="M 0 0 C -116 -137 -298 -116 -321 0 C -344 116 -120 135 0 0 C 120 -135 344 -116 321 0 C 298 116 116 137 0 0 Z" fill="none" stroke="#FFFFFF" opacity="0.18" stroke-width="22" stroke-linecap="round" stroke-linejoin="round" id="path9" />
    <path d="M-15 2 C-6 -8 7 -8 15 2" fill="none" stroke="#f8f3e7" stroke-width="18" stroke-linecap="round" opacity="0.95" id="path10" />
    <path d="M0 -30 C4 -105 0 -145 0 -185" fill="none" stroke="#1F3A24" stroke-width="15" stroke-linecap="round" id="path11" />
    <path d="M2 -130 C34 -186 85 -199 118 -184 C99 -134 57 -112 2 -130 Z" fill="url(#leafGradient)" id="path12" />
    <path d="M-8 -106 C-58 -154 -105 -154 -130 -126 C-92 -88 -51 -84 -8 -106 Z" fill="url(#leafGradient)" id="path13" />
    <path d="M8 -182 C30 -244 75 -274 112 -266 C107 -205 70 -176 8 -182 Z" fill="url(#leafGradient)" id="path14" />
    <path d="M-2 -60 C-46 -95 -88 -91 -116 -60 C-82 -31 -43 -31 -2 -60 Z" fill="url(#leafGradient)" opacity="0.92" id="path15" />
    <path d="M3 -128 C33 -155 67 -171 106 -180" fill="none" stroke="#FFFFFF" opacity="0.45" stroke-width="4" stroke-linecap="round" id="path16" />
    <path d="M-14 -108 C-49 -122 -84 -124 -117 -124" fill="none" stroke="#FFFFFF" opacity="0.45" stroke-width="4" stroke-linecap="round" id="path17" />
    <path d="M19 -190 C43 -220 65 -244 103 -259" fill="none" stroke="#FFFFFF" opacity="0.45" stroke-width="4" stroke-linecap="round" id="path18" />
    <path d="M0 8 C0 80 -2 132 0 198" fill="none" stroke="url(#rootGradient)" stroke-width="22" stroke-linecap="round" id="path19" />
    <path d="M0 76 C-42 114 -92 132 -146 146" fill="none" stroke="url(#rootGradient)" stroke-width="13" stroke-linecap="round" id="path20" />
    <path d="M0 95 C46 125 92 141 155 150" fill="none" stroke="url(#rootGradient)" stroke-width="13" stroke-linecap="round" id="path21" />
    <path d="M0 128 C-26 165 -57 196 -104 229" fill="none" stroke="url(#rootGradient)" stroke-width="10" stroke-linecap="round" id="path22" />
    <path d="M0 128 C32 169 69 199 116 232" fill="none" stroke="url(#rootGradient)" stroke-width="10" stroke-linecap="round" id="path23" />
    <path d="M-58 137 C-86 181 -118 202 -160 218" fill="none" stroke="url(#rootGradient)" stroke-width="8" stroke-linecap="round" id="path24" />
    <path d="M63 137 C93 179 125 200 169 216" fill="none" stroke="url(#rootGradient)" stroke-width="8" stroke-linecap="round" id="path25" />
    <path d="M-102 155 C-136 153 -163 164 -193 186" fill="none" stroke="url(#rootGradient)" stroke-width="7" stroke-linecap="round" id="path26" />
    <path d="M103 155 C138 151 168 164 197 186" fill="none" stroke="url(#rootGradient)" stroke-width="7" stroke-linecap="round" id="path27" />
    <path d="M-72 178 C-78 210 -93 239 -121 270" fill="none" stroke="url(#rootGradient)" stroke-width="6" stroke-linecap="round" id="path28" />
    <path d="M74 178 C81 211 98 238 126 267" fill="none" stroke="url(#rootGradient)" stroke-width="6" stroke-linecap="round" id="path29" />
    <path d="M-25 180 C-41 225 -63 260 -90 298" fill="none" stroke="url(#rootGradient)" stroke-width="6" stroke-linecap="round" id="path30" />
    <path d="M24 180 C40 225 60 260 88 298" fill="none" stroke="url(#rootGradient)" stroke-width="6" stroke-linecap="round" id="path31" />
    <path d="M-5 190 C-5 230 -4 266 -2 315" fill="none" stroke="url(#rootGradient)" stroke-width="6" stroke-linecap="round" id="path32" />
    <path d="M-140 148 C-172 136 -207 138 -238 154" fill="none" stroke="url(#rootGradient)" stroke-width="5" stroke-linecap="round" id="path33" />
    <path d="M145 149 C176 138 208 138 240 154" fill="none" stroke="url(#rootGradient)" stroke-width="5" stroke-linecap="round" id="path34" />
  </g>
  <path d="m 895.92,423.076 q 2.132,0 3.936,0.82 1.804,0.82 1.804,2.132 0,1.968 -2.46,2.788 -0.82,0.164 -2.952,0.82 -1.968,0.492 -2.624,0.656 -0.492,0.164 -2.132,0.82 -1.476,0.492 -1.968,0.82 -0.328,0.328 -1.312,0.984 -0.984,0.656 -1.312,1.312 -0.164,0.656 -0.656,1.804 -0.492,0.984 -0.656,2.296 0,1.148 0,2.624 v 59.86 q 0,4.592 1.804,7.38 1.804,2.624 5.904,4.428 0.984,0.492 3.608,1.476 2.788,0.82 4.1,1.64 1.312,0.656 1.312,1.804 0,2.296 -5.248,2.788 -0.328,0 -3.772,-0.328 -3.28,-0.164 -8.036,-0.328 -4.592,-0.328 -8.036,-0.328 -3.444,0 -7.872,0.328 -4.264,0.164 -7.38,0.328 -2.952,0.328 -3.28,0.328 -5.412,-0.492 -5.412,-2.788 0,-1.148 1.312,-1.804 1.312,-0.82 3.936,-1.64 2.788,-0.984 3.772,-1.476 4.1,-1.804 5.904,-4.428 1.804,-2.788 1.804,-7.38 v -59.86 q 0,-1.476 -0.164,-2.624 0,-1.312 -0.492,-2.296 -0.492,-1.148 -0.82,-1.804 -0.164,-0.656 -1.148,-1.312 -0.984,-0.656 -1.312,-0.984 -0.328,-0.328 -1.968,-0.82 -1.476,-0.656 -2.132,-0.82 -0.492,-0.164 -2.624,-0.656 -1.968,-0.656 -2.788,-0.82 -2.624,-0.82 -2.624,-2.788 0,-1.312 1.804,-2.132 1.804,-0.82 3.936,-0.82 3.28,0 9.184,0.492 6.068,0.328 9.02,0.328 2.952,0 9.02,-0.328 6.232,-0.492 9.02,-0.492 z m 83.31212,78.884 q 0,3.608 1.476,6.724 1.64,3.116 4.756,4.1 5.904,1.804 5.904,4.264 0,0.984 -0.164,1.64 -0.164,0.492 -1.312,1.148 -0.984,0.492 -2.952,0.492 -1.968,0 -7.708,-0.492 -5.576,-0.492 -6.724,-0.492 -1.64,0 -6.068,0.492 -4.264,0.492 -6.068,0.492 -4.92,0 -4.92,-3.28 0,-2.296 6.396,-4.264 3.772,-0.984 3.772,-10.496 v -25.092 q 0,-7.544 -4.1,-13.284 -3.936,-5.904 -10.168,-5.904 -7.38,0 -11.808,4.592 -4.264,4.428 -4.264,13.448 l -0.164,26.24 q 0,9.348 3.772,10.496 6.232,1.804 6.232,4.264 0,3.28 -4.756,3.28 -1.968,0 -6.396,-0.492 -4.428,-0.492 -5.576,-0.492 -1.64,0 -7.216,0.492 -5.576,0.492 -7.38,0.492 -4.92,0 -4.92,-3.28 0,-2.296 6.396,-4.264 3.116,-0.984 4.592,-3.936 1.64,-3.116 1.64,-6.56 v -31.816 q 0,-2.132 -1.968,-4.756 -1.968,-2.624 -4.756,-3.608 -3.444,-1.312 -3.444,-3.444 0,-1.968 4.756,-4.1 1.968,-0.984 8.856,-3.608 7.052,-2.788 8.2,-2.788 1.312,0 1.64,0.984 0.328,0.984 0.328,3.608 v 4.1 q 0,2.132 2.624,-0.328 0.492,-0.492 0.656,-0.656 7.872,-6.396 20.336,-6.396 8.528,0 14.432,6.888 6.068,6.724 6.068,15.908 z m 63.79588,-40.18 h -16.236 q -2.624,0 -2.624,3.772 v 36.736 q 0,8.856 2.952,9.84 7.052,2.132 7.052,4.92 0,3.28 -5.576,3.28 -1.968,0 -6.068,-0.492 -3.936,-0.492 -5.084,-0.492 -1.64,0 -7.216,0.492 -5.576,0.492 -7.38,0.492 -5.74001,0 -5.74001,-3.28 0,-2.132 7.21601,-4.264 3.116,-0.984 4.592,-3.936 1.64,-3.116 1.64,-6.56 v -37.064 q 0,-2.952 -6.888,-2.952 -1.476,0 -3.444,-0.492 -1.80401,-0.656 -1.80401,-1.804 0,-2.952 10.00401,-6.56 2.132,-0.82 2.132,-4.92 0,-6.888 4.264,-16.236 4.264,-9.348 13.448,-17.384 9.348,-8.036 20.828,-8.036 9.84,0 15.088,3.772 5.248,3.608 5.248,10.004 0,3.116 -3.772,5.248 -3.608,2.132 -7.38,2.132 -1.64,0 -2.46,-0.492 -0.656,-0.656 -2.296,-2.788 -1.64,-2.132 -3.444,-3.936 -5.084,-5.084 -9.512,-5.084 -4.592,0 -8.036,3.28 -3.444,3.116 -5.248,8.692 -1.64,5.412 -2.46,11.152 -0.656,5.576 -0.656,11.808 0,2.132 3.608,2.132 l 20.172,-0.328 q 4.428,0 5.74,-0.492 9.676,-3.772 10.988,-3.772 1.312,0 1.64,0.984 0.328,0.984 0.328,3.772 v 49.364 q 0,3.444 1.476,6.56 1.64,2.952 4.756,3.936 7.052,2.132 7.052,4.264 0,3.28 -5.576,3.28 -1.968,0 -7.708,-0.492 -5.576,-0.492 -6.724,-0.492 -1.64,0 -6.068,0.492 -4.264,0.492 -6.068,0.492 -5.74,0 -5.74,-3.28 0,-2.788 7.216,-4.92 3.772,-1.148 3.772,-9.84 v -31.816 q 0,-8.692 -10.004,-8.692 z m 112.996,40.18 q 0,3.608 1.476,6.724 1.64,3.116 4.756,4.1 5.904,1.804 5.904,4.264 0,0.984 -0.164,1.64 -0.164,0.492 -1.312,1.148 -0.984,0.492 -2.952,0.492 -1.968,0 -7.708,-0.492 -5.576,-0.492 -6.724,-0.492 -1.64,0 -6.068,0.492 -4.264,0.492 -6.068,0.492 -4.92,0 -4.92,-3.28 0,-2.296 6.396,-4.264 3.772,-0.984 3.772,-10.496 v -25.092 q 0,-7.544 -4.1,-13.284 -3.936,-5.904 -10.168,-5.904 -7.38,0 -11.808,4.592 -4.264,4.428 -4.264,13.448 l -0.164,26.24 q 0,9.348 3.772,10.496 6.232,1.804 6.232,4.264 0,3.28 -4.756,3.28 -1.968,0 -6.396,-0.492 -4.428,-0.492 -5.576,-0.492 -1.64,0 -7.216,0.492 -5.576,0.492 -7.38,0.492 -4.92,0 -4.92,-3.28 0,-2.296 6.396,-4.264 3.116,-0.984 4.592,-3.936 1.64,-3.116 1.64,-6.56 v -31.816 q 0,-2.132 -1.968,-4.756 -1.968,-2.624 -4.756,-3.608 -3.444,-1.312 -3.444,-3.444 0,-1.968 4.756,-4.1 1.968,-0.984 8.856,-3.608 7.052,-2.788 8.2,-2.788 1.312,0 1.64,0.984 0.328,0.984 0.328,3.608 v 4.1 q 0,2.132 2.624,-0.328 0.492,-0.492 0.656,-0.656 7.872,-6.396 20.336,-6.396 8.528,0 14.432,6.888 6.068,6.724 6.068,15.908 z m 30.8318,-85.116 q 2.624,-2.624 6.396,-2.624 3.772,0 6.396,2.624 2.624,2.624 2.624,6.232 0,3.772 -2.624,6.56 -2.624,2.624 -6.396,2.624 -3.772,0 -6.396,-2.624 -2.624,-2.788 -2.624,-6.56 0,-3.608 2.624,-6.232 z m 0.492,53.628 q 0,-2.132 -1.968,-4.756 -1.968,-2.624 -4.756,-3.608 -3.444,-1.312 -3.444,-3.444 0,-1.968 4.756,-4.1 1.64,-0.82 8.692,-3.608 7.216,-2.788 8.364,-2.788 1.312,0 1.64,0.984 0.328,0.984 0.328,3.772 v 49.364 q 0,3.444 1.476,6.56 1.64,2.952 4.756,3.936 7.052,2.132 7.052,4.264 0,3.28 -5.576,3.28 -1.968,0 -7.708,-0.492 -5.576,-0.492 -6.724,-0.492 -1.64,0 -7.216,0.492 -5.576,0.492 -7.38,0.492 -5.74,0 -5.74,-3.28 0,-2.132 7.216,-4.264 3.116,-0.984 4.592,-3.936 1.64,-3.116 1.64,-6.56 z m 59.8599,50.84 q -8.036,0 -12.956,-4.428 -4.756,-4.428 -4.756,-14.268 v -39.032 q 0,-0.164 0,-0.656 0.164,-0.492 0,-0.492 0,-0.164 -0.328,-0.492 -0.164,-0.328 -0.82,-0.328 -0.492,-0.164 -1.476,-0.164 -0.984,-0.164 -2.46,-0.164 -1.476,0 -3.444,-0.492 -1.804,-0.656 -1.804,-1.804 0,-0.984 1.476,-2.46 1.64,-1.64 5.248,-4.428 3.608,-2.788 4.264,-3.444 0.492,-0.328 2.296,-1.968 1.804,-1.804 3.116,-2.952 1.312,-1.148 2.788,-2.132 1.64,-1.148 2.46,-1.148 2.296,0 2.296,4.1 v 4.592 q 0,2.46 3.608,2.46 h 15.908 q 3.28,0 3.28,3.772 0,1.476 -1.312,3.772 -1.148,2.132 -2.624,2.132 h -16.236 q -2.624,0 -2.624,3.116 v 30.668 q 0,8.364 1.968,11.808 2.132,3.28 6.56,3.28 3.608,0 7.544,-1.476 3.936,-1.476 4.264,-1.476 2.46,0 2.46,2.296 0,3.28 -6.068,7.544 -5.904,4.264 -12.628,4.264 z m 43.1321,-52.972 q 0,1.804 2.132,1.804 h 21.648 q 2.46,0 2.46,-5.084 0,-3.444 -2.952,-5.74 -2.952,-2.296 -6.724,-2.296 -6.724,0 -11.644,4.1 -4.92,4.1 -4.92,7.216 z m 40.508,-1.804 q 0,11.152 -4.92,11.152 h -34.604 q -2.46,0 -3.116,1.64 -0.656,1.804 -0.656,4.92 0,10.004 5.74,18.04 5.74,7.872 14.924,7.872 4.92,0 10.988,-1.968 l 6.068,-1.804 q 2.46,0 2.46,2.296 0,4.1 -7.38,8.364 -7.216,4.264 -18.204,4.264 -12.956,0 -20.664,-10.66 -7.708,-10.824 -7.708,-25.584 0,-15.088 10.168,-25.256 10.168,-10.332 25.256,-10.332 8.2,0 14.924,5.412 6.724,5.248 6.724,11.644 z m 42.3121,8.856 q -0.984,1.968 -0.82,2.788 0.328,0.656 2.296,0.656 h 20.008 q 2.46,0 2.788,-0.984 0.328,-0.984 -0.984,-4.92 l -10.004,-30.668 q -0.656,-2.296 -1.804,0.492 z m 46.74,43.952 q -6.068,0 -13.12,0.492 -7.052,0.492 -8.856,0.492 -1.804,0 -3.608,-0.656 -1.64,-0.82 -1.64,-2.132 0,-1.148 1.148,-1.804 1.312,-0.82 3.936,-1.64 2.788,-0.984 3.772,-1.476 6.396,-2.952 4.756,-8.692 l -4.756,-15.58 q -0.656,-1.968 -2.624,-1.968 h -27.388 q -1.968,0 -2.624,1.804 l -6.232,17.876 q -1.804,5.412 3.608,6.888 6.068,1.64 6.068,4.592 0,2.788 -5.74,2.788 -1.64,0 -6.888,-0.492 -5.084,-0.492 -6.56,-0.492 -2.296,0 -5.904,0.492 -3.444,0.492 -4.428,0.492 -5.412,0 -5.412,-2.788 0,-1.148 1.312,-1.804 1.312,-0.82 3.936,-1.64 2.788,-0.984 3.772,-1.476 0.82,-0.328 1.476,-0.656 0.656,-0.328 1.148,-0.656 0.492,-0.328 0.984,-0.656 0.492,-0.492 0.656,-0.656 0.328,-0.164 0.656,-0.82 0.328,-0.656 0.492,-0.82 0.164,-0.164 0.492,-0.984 0.492,-0.984 0.492,-1.312 0.164,-0.328 0.656,-1.476 0.492,-1.312 0.656,-1.968 l 25.092,-69.372 q 0.656,-1.804 1.312,-3.608 0.656,-1.804 0.984,-2.624 0.328,-0.984 0.656,-1.64 0.328,-0.82 0.656,-1.148 0.492,-0.328 0.984,-0.328 1.804,-0.164 4.264,-2.46 2.46,-2.46 2.788,-2.46 0.82,0 1.476,0.656 0.656,0.492 1.148,1.804 0.656,1.148 0.984,2.296 0.492,1.148 1.148,3.444 0.82,2.296 1.312,3.608 l 21.648,61.172 q 3.936,10.824 6.396,14.76 2.46,3.772 8.2,5.904 6.56,2.296 6.56,5.084 0,2.624 -4.756,2.624 -1.64,0 -6.888,-0.492 -5.248,-0.492 -8.2,-0.492 z m 33.9481,22.14 q 0,7.052 6.068,10.496 6.068,3.444 14.432,3.444 9.348,0 15.416,-4.428 6.232,-4.428 6.232,-11.972 0,-7.708 -6.068,-10.66 -5.904,-2.952 -19.024,-2.952 -5.74,0 -10.988,4.756 -6.068,5.576 -6.068,11.316 z m 6.232,-68.88 q 0,8.2 3.444,14.432 3.444,6.232 10.004,6.232 6.396,0 9.676,-6.068 3.444,-6.068 3.444,-14.104 0,-6.724 -4.592,-11.644 -4.428,-5.084 -10.988,-5.084 -5.248,0 -8.2,4.92 -2.788,4.92 -2.788,11.316 z m 13.448,-23.124 q 9.512,0 14.76,2.788 5.576,2.788 6.724,2.788 l 17.056,-0.328 q 2.296,0 3.444,1.804 1.148,1.804 1.148,3.936 0,5.084 -5.904,5.084 -1.148,0 -5.904,-0.328 -4.592,-0.492 -5.248,-0.492 -2.132,0 -1.476,1.804 1.312,3.444 1.312,7.216 0,9.348 -8.528,17.876 -8.364,8.528 -19.024,8.528 -0.984,0 -2.46,-0.164 -1.312,-0.328 -1.64,-0.328 -1.148,0 -2.132,0.82 -5.576,4.756 -5.576,8.856 0,3.772 12.3,4.264 l 19.68,0.656 q 5.904,0.328 11.152,4.756 5.412,4.264 5.412,10.66 0,15.416 -12.464,25.092 -12.464,9.84 -29.192,9.84 -11.972,0 -19.352,-4.592 -7.38,-4.592 -7.38,-13.776 0,-10.496 15.744,-20.336 1.476,-0.82 -0.984,-2.132 -4.92,-2.132 -7.216,-4.1 -2.132,-2.132 -2.132,-5.904 0,-1.804 2.296,-3.772 8.692,-7.544 10.988,-10.988 1.148,-1.476 0,-2.132 -5.904,-3.444 -9.676,-9.02 -3.608,-5.74 -3.608,-12.628 0,-10.824 8.2,-18.204 8.364,-7.544 19.68,-7.544 z" id="text34" class="wordmark-small" style="font-size:164px;font-family:'EB Garamond', Georgia, serif;letter-spacing:0px;fill:#1f3a24" aria-label="InfiniteAg" />
  <line x1="855" y1="615" x2="1238" y2="615" stroke="#C79A4E" stroke-width="4" id="line34" />
  <line x1="1360" y1="615" x2="1745" y2="615" stroke="#C79A4E" stroke-width="4" id="line35" />
  </svg>